<svg width="21" height="15" viewBox="0 0 21 15" fill="none" xmlns="http://www.w3.org/2000/svg">
<path d="M16.0962 4.74943L16.9332 5.59833L15.7411 5.60047L3.76005 5.62194C1.97411 5.62514 0.512516 7.10536 0.515813 8.94513L0.522653 12.7625C0.523435 13.1986 0.867133 13.5343 1.2741 13.5336C1.68106 13.5329 2.02355 13.1959 2.02277 12.7598L2.01593 8.94244C2.01419 7.97088 2.7869 7.1686 3.76281 7.16685L15.7438 7.14538L16.9371 7.14324L16.1018 7.99538L13.24 10.915C13.2399 10.915 13.2399 10.915 13.2399 10.9151C12.9433 11.2181 12.9442 11.7135 13.2419 12.0155C13.5348 12.3126 14.0064 12.3117 14.2982 12.0136L19.2893 6.91484C19.586 6.61178 19.5851 6.11633 19.2873 5.81432L14.278 0.733468C13.9851 0.436405 13.5135 0.43725 13.2217 0.73536C12.925 1.03843 12.9259 1.53388 13.2237 1.83588L16.0962 4.74943Z" stroke="#777777"/>
</svg>
