<svg width="25" height="25" viewBox="0 0 25 25" fill="none" xmlns="http://www.w3.org/2000/svg">
<path d="M9.25 7.42857V6.92857H8.75H6.69141C5.98293 6.92857 5.3394 7.34912 5.07261 8.00141C5.0725 8.0017 5.07238 8.00198 5.07226 8.00227L3.88541 10.8808L3.60067 11.5714H4.34766H8.75H9.25V11.0714V7.42857ZM10.125 11.0714V11.5714H10.625H17.3984H18.4579L17.7844 10.7536L15.1594 7.56607L15.1589 7.56545C14.8237 7.15973 14.3218 6.92857 13.7969 6.92857H10.625H10.125V7.42857V11.0714ZM20.2468 11.4272L20.3736 11.5812L20.5716 11.6056C22.7968 11.8801 24.5 13.7216 24.5 15.9286V17.75C24.5 18.1319 24.179 18.4643 23.75 18.4643H22.4492H22.028L21.9565 18.8794C21.7021 20.3558 20.3726 21.5 18.75 21.5C17.1274 21.5 15.7979 20.3558 15.5435 18.8794L15.472 18.4643H15.0508H9.94922H9.52801L9.45648 18.8794C9.20205 20.3558 7.87262 21.5 6.25 21.5C4.62738 21.5 3.29795 20.3558 3.04352 18.8794L2.97199 18.4643H2.55078H1.25C0.820975 18.4643 0.5 18.1319 0.5 17.75V13.5C0.5 12.6932 1.01475 11.9931 1.76504 11.7052L1.96632 11.628L2.04834 11.4286L3.67334 7.47839L3.67355 7.47787C4.16021 6.2911 5.3517 5.5 6.69141 5.5H13.7969C14.792 5.5 15.7269 5.93704 16.3403 6.68351L16.3406 6.68393L20.2468 11.4272ZM16.9794 16.7935C16.7721 17.0221 16.6126 17.2889 16.5106 17.579C16.4022 17.8668 16.3532 18.1731 16.3666 18.48C16.3801 18.7894 16.4568 19.0925 16.5917 19.3718C16.7265 19.6511 16.9167 19.9005 17.1504 20.1061C17.384 20.3117 17.6566 20.4695 17.9519 20.5709C18.2473 20.6724 18.56 20.7157 18.8722 20.6986C19.1844 20.6815 19.4904 20.6043 19.7726 20.4711C20.0547 20.3379 20.3078 20.1511 20.5167 19.9208C20.724 19.6922 20.8835 19.4254 20.9855 19.1353C21.0939 18.8475 21.1429 18.5412 21.1295 18.2342C21.116 17.9249 21.0393 17.6218 20.9044 17.3425C20.7695 17.0632 20.5794 16.8138 20.3457 16.6082C20.1121 16.4026 19.8395 16.2448 19.5441 16.1434C19.2488 16.0419 18.936 15.9986 18.6239 16.0157C18.3117 16.0328 18.0057 16.1099 17.7235 16.2432C17.4414 16.3764 17.1883 16.5632 16.9794 16.7935ZM7.92422 16.7106C7.47778 16.2769 6.87529 16.0357 6.25 16.0357C5.62471 16.0357 5.02222 16.2769 4.57578 16.7106C4.12885 17.1447 3.875 17.7367 3.875 18.3571C3.875 18.9776 4.12885 19.5696 4.57578 20.0037C5.02222 20.4374 5.62471 20.6786 6.25 20.6786C6.87529 20.6786 7.47778 20.4374 7.92422 20.0037C8.37115 19.5696 8.625 18.9776 8.625 18.3571C8.625 17.7367 8.37115 17.1447 7.92422 16.7106Z" stroke="#777777"/>
</svg>
