<svg width="19" height="15" viewBox="0 0 19 15" fill="none" xmlns="http://www.w3.org/2000/svg">
<path d="M16.6915 1.28592C16.2496 0.878249 15.7249 0.554851 15.1474 0.334208C14.5699 0.113565 13.9509 0 13.3257 0C12.7006 0 12.0816 0.113565 11.5041 0.334208C10.9266 0.554851 10.4019 0.878249 9.95998 1.28592L9.04283 2.1316L8.12568 1.28592C7.23303 0.462834 6.02232 0.000426636 4.75991 0.000426645C3.49751 0.000426654 2.2868 0.462834 1.39415 1.28592C0.50149 2.10901 9.40567e-09 3.22536 0 4.38939C-9.40567e-09 5.55341 0.50149 6.66976 1.39415 7.49285L2.3113 8.33853L9.04283 14.5455L15.7744 8.33853L16.6915 7.49285C17.1336 7.08537 17.4844 6.60156 17.7237 6.06905C17.963 5.53655 18.0861 4.96579 18.0861 4.38939C18.0861 3.81298 17.963 3.24223 17.7237 2.70972C17.4844 2.17722 17.1336 1.69341 16.6915 1.28592Z" fill="#F10F0F"/>
</svg>
