<svg xmlns="http://www.w3.org/2000/svg" width="20" height="20" fill="none" viewBox="0 0 20 20"><path stroke="#767676" stroke-linecap="round" stroke-linejoin="round" stroke-width="1.5" d="M16.92 4.013a4.301 4.301 0 0 0-1.397-.951 4.235 4.235 0 0 0-3.296 0 4.3 4.3 0 0 0-1.397.951L10 4.86l-.83-.846a4.266 4.266 0 0 0-3.045-1.285A4.266 4.266 0 0 0 3.08 4.013a4.432 4.432 0 0 0-1.262 3.104A4.43 4.43 0 0 0 3.08 10.22l.83.846L10 17.273l6.09-6.207.83-.846c.4-.407.718-.89.934-1.423a4.46 4.46 0 0 0 0-3.36 4.395 4.395 0 0 0-.934-1.424z"/></svg>