<svg width="226" height="160" viewBox="0 0 226 160" fill="none" xmlns="http://www.w3.org/2000/svg">
<path d="M130.687 68.4483C135.115 68.4758 138.781 64.8835 138.163 60.4988C137.397 55.0613 135.835 49.7262 133.506 44.6343C130.044 37.0629 124.957 30.1773 118.535 24.3708C112.112 18.5642 104.481 13.9503 96.0757 10.7925C87.6707 7.63477 78.6569 5.99497 69.549 5.96677C60.441 5.93856 51.4172 7.52249 42.9929 10.6281C34.5685 13.7338 26.9086 18.3003 20.4504 24.067C13.9921 29.8336 8.86213 36.6875 5.35325 44.2373C2.99341 49.3148 1.39788 54.6402 0.598269 60.0728C-0.0465236 64.4536 3.59683 68.0685 8.02479 68.0685L69.549 68.0686L130.687 68.4483Z" fill="#DBDBDB"/>
<rect x="87.7881" y="11.9409" width="35.8228" height="11.9409" rx="5.97047" transform="rotate(180 87.7881 11.9409)" fill="#DBDBDB"/>
<path d="M196.282 46.7454C197.437 44.8621 196.847 42.3993 194.963 41.2445C193.08 40.0898 190.617 40.6804 189.462 42.5637L196.282 46.7454ZM147.993 125.502L196.282 46.7454L189.462 42.5637L141.173 121.321L147.993 125.502Z" fill="#DBDBDB"/>
<path d="M95.9172 133.974C97.9662 134.8 100.297 133.808 101.122 131.759C101.948 129.71 100.956 127.379 98.9074 126.554L95.9172 133.974ZM0.837661 95.6583L95.9172 133.974L98.9074 126.554L3.82787 88.2382L0.837661 95.6583Z" fill="#DBDBDB"/>
<path d="M180.073 70.3231L224.05 96.148C226.764 104.458 221.057 105.113 217.865 104.401C206.665 96.3041 182.899 79.4139 178.144 75.5144C172.201 70.6401 168.465 72.513 165.168 73.193C162.53 73.7371 158.858 71.6299 157.352 70.5083C153.244 67.2565 144.843 60.6071 144.103 60.0238C143.178 59.2947 142.233 58.4728 143.064 57.3336C143.817 56.2994 145.17 57.0605 145.808 57.4934C151.943 61.6572 157.465 65.4208 158.6 66.2324C159.736 67.0439 160.993 66.1746 161.48 65.6385C162.484 64.0918 164.684 60.7073 165.451 59.5421C166.218 58.377 164.822 56.9607 164.028 56.3982C162.02 55.0371 157.361 51.915 154.785 50.3162C151.565 48.3176 149.305 47.2853 150.372 45.5533C151.271 44.0952 154.104 45.6186 155.426 46.5151L166.45 52.5101C169.628 54.7591 173.263 55.7622 174.156 62.0579C175.05 68.3536 178.454 69.3627 180.073 70.3231Z" fill="#DBDBDB"/>
<path d="M148.168 52.6372L166.672 64.8135" stroke="#DBDBDB" stroke-width="6" stroke-linecap="round"/>
<path d="M91.7729 101.108L37.5014 111.273C35.0433 111.734 32.7669 114.083 32.9197 117.733C33.042 120.652 36.7574 122.092 38.5998 122.447C54.5895 118.102 88.2109 108.062 93.3087 106.995C100.316 105.528 103.287 107.904 104.275 108.605C105.263 109.306 109.572 111.607 115.795 109.867C124.508 107.43 136.566 99.4989 134.479 93.9064C132.392 88.3138 121.745 86.7611 112.654 87.9341C106.592 88.7163 104.042 90.7352 100.852 95.5546C98.3004 99.4101 93.7361 100.863 91.7729 101.108Z" fill="#DBDBDB"/>
</svg>
