<svg width="243" height="195" viewBox="0 0 243 195" fill="none" xmlns="http://www.w3.org/2000/svg">
<path d="M130.687 102.747C135.114 102.775 138.78 99.1823 138.163 94.7976C137.397 89.3602 135.834 84.0251 133.506 78.9331C130.044 71.3617 124.956 64.4762 118.534 58.6696C112.112 52.863 104.48 48.2491 96.0751 45.0914C87.6701 41.9336 78.6563 40.2938 69.5484 40.2656C60.4404 40.2374 51.4166 41.8213 42.9923 44.927C34.5679 48.0326 26.908 52.5991 20.4497 58.3658C13.9915 64.1325 8.86152 70.9864 5.35264 78.5362C2.9928 83.6137 1.39727 88.939 0.597658 94.3717C-0.0471339 98.7524 3.59622 102.367 8.02418 102.367L69.5484 102.367L130.687 102.747Z" fill="#DBDBDB"/>
<rect x="87.7881" y="46.2397" width="35.8228" height="11.9409" rx="5.97047" transform="rotate(180 87.7881 46.2397)" fill="#DBDBDB"/>
<path d="M196.282 81.0442C197.437 79.1609 196.846 76.6981 194.963 75.5434C193.08 74.3886 190.617 74.9792 189.462 76.8626L196.282 81.0442ZM147.993 159.801L196.282 81.0442L189.462 76.8626L141.173 155.62L147.993 159.801Z" fill="#DBDBDB"/>
<path d="M95.9174 168.273C97.9664 169.098 100.297 168.107 101.123 166.058C101.948 164.009 100.957 161.678 98.9076 160.853L95.9174 168.273ZM0.837905 129.957L95.9174 168.273L98.9076 160.853L3.82811 122.537L0.837905 129.957Z" fill="#DBDBDB"/>
<path d="M180.073 104.622L224.05 130.447C226.764 138.757 221.057 139.411 217.865 138.7C206.665 130.603 182.899 113.713 178.144 109.813C172.201 104.939 168.465 106.812 165.168 107.492C162.53 108.036 158.858 105.929 157.352 104.807C153.244 101.555 144.843 94.9059 144.103 94.3227C143.178 93.5936 142.233 92.7716 143.064 91.6325C143.817 90.5983 145.17 91.3593 145.808 91.7923C151.943 95.956 157.465 99.7197 158.6 100.531C159.736 101.343 160.993 100.473 161.48 99.9373C162.484 98.3907 164.684 95.0061 165.451 93.841C166.218 92.6758 164.822 91.2595 164.028 90.697C162.02 89.3359 157.361 86.2139 154.785 84.615C151.565 82.6164 149.305 81.5841 150.372 79.8522C151.271 78.394 154.104 79.9175 155.426 80.814L166.45 86.8089C169.628 89.0579 173.263 90.0611 174.156 96.3567C175.05 102.652 178.454 103.662 180.073 104.622Z" fill="#DBDBDB"/>
<path d="M148.168 86.936L166.672 99.1123" stroke="#DBDBDB" stroke-width="6" stroke-linecap="round"/>
<path d="M91.7723 135.407L37.5008 145.572C35.0427 146.033 32.7663 148.382 32.9191 152.032C33.0414 154.951 36.7568 156.391 38.5991 156.746C54.5889 152.401 88.2103 142.361 93.308 141.294C100.316 139.827 103.286 142.203 104.274 142.904C105.262 143.605 109.571 145.906 115.794 144.166C124.508 141.729 136.565 133.798 134.478 128.205C132.391 122.613 121.744 121.06 112.654 122.233C106.592 123.015 104.042 125.034 100.852 129.853C98.2998 133.709 93.7355 135.162 91.7723 135.407Z" fill="#DBDBDB"/>
<path d="M158.3 0.130312V30.1677H164.494V37.5305H158.3V49.3239H150.326V37.5305H127V30.2329C130.866 25.2375 134.666 20.2204 138.4 15.1816C142.134 10.1428 145.933 5.12569 149.799 0.130312H158.3ZM150.326 30.298V15.1164C150.326 14.8124 150.326 14.2694 150.326 13.4875C150.37 12.7056 150.414 11.8803 150.458 11.0115L135.962 30.298H150.326Z" fill="#DBDBDB"/>
<path d="M202.824 25.1506C202.824 29.451 202.363 33.1867 201.44 36.3576C200.518 39.4852 199.222 42.0914 197.553 44.1765C195.927 46.2181 193.994 47.7384 191.754 48.7375C189.514 49.7365 187.075 50.2361 184.44 50.2361C181.892 50.2361 179.498 49.7365 177.257 48.7375C175.061 47.7384 173.128 46.2181 171.459 44.1765C169.833 42.0914 168.559 39.4852 167.637 36.3576C166.714 33.1867 166.253 29.451 166.253 25.1506C166.253 20.8068 166.714 17.0711 167.637 13.9436C168.559 10.7726 169.833 8.16635 171.459 6.12476C173.128 4.03974 175.061 2.49769 177.257 1.49861C179.498 0.499537 181.892 0 184.44 0C187.075 0 189.514 0.499537 191.754 1.49861C193.994 2.49769 195.927 4.03974 197.553 6.12476C199.222 8.16635 200.518 10.7726 201.44 13.9436C202.363 17.0711 202.824 20.8068 202.824 25.1506ZM193.599 25.1506C193.599 21.6756 193.335 18.8087 192.808 16.5499C192.325 14.2477 191.666 12.445 190.831 11.1419C189.997 9.79527 189.008 8.86136 187.866 8.3401C186.768 7.77541 185.626 7.49306 184.44 7.49306C183.298 7.49306 182.177 7.77541 181.079 8.3401C180.025 8.86136 179.08 9.79527 178.246 11.1419C177.411 12.445 176.73 14.2477 176.203 16.5499C175.72 18.8087 175.478 21.6756 175.478 25.1506C175.478 28.5822 175.72 31.4274 176.203 33.6862C176.73 35.945 177.411 37.7476 178.246 39.0942C179.08 40.4408 180.025 41.3747 181.079 41.896C182.177 42.4172 183.298 42.6779 184.44 42.6779C185.626 42.6779 186.768 42.4172 187.866 41.896C189.008 41.3747 189.997 40.4408 190.831 39.0942C191.666 37.7476 192.325 35.945 192.808 33.6862C193.335 31.4274 193.599 28.5822 193.599 25.1506Z" fill="#DBDBDB"/>
<path d="M236.806 0.130312V30.1677H243V37.5305H236.806V49.3239H228.833V37.5305H205.506V30.2329C209.372 25.2375 213.172 20.2204 216.906 15.1816C220.64 10.1428 224.44 5.12569 228.305 0.130312H236.806ZM228.833 30.298V15.1164C228.833 14.8124 228.833 14.2694 228.833 13.4875C228.876 12.7056 228.92 11.8803 228.964 11.0115L214.468 30.298H228.833Z" fill="#DBDBDB"/>
</svg>
