<svg xmlns="http://www.w3.org/2000/svg" width="31" height="42" fill="none" viewBox="0 0 31 42"><path fill="#019223" stroke="#fff" d="M30.5 15.39c0 1.653-.56 3.674-1.5 5.885-.937 2.203-2.233 4.556-3.665 6.862-2.863 4.612-6.245 8.998-8.31 11.565a1.95 1.95 0 0 1-3.05 0c-2.065-2.566-5.447-6.953-8.31-11.565-1.432-2.306-2.728-4.659-3.664-6.862C1.06 19.064.5 17.043.5 15.39.5 7.173 7.216.5 15.5.5c8.285 0 15 6.673 15 14.89zm-10.994-3.982A5.685 5.685 0 0 0 15.5 9.761a5.685 5.685 0 0 0-4.006 1.647 5.612 5.612 0 0 0-1.66 3.983 5.61 5.61 0 0 0 1.66 3.982 5.685 5.685 0 0 0 4.006 1.648 5.685 5.685 0 0 0 4.006-1.648 5.612 5.612 0 0 0 1.66-3.982 5.612 5.612 0 0 0-1.66-3.983z"/><circle cx="15.5" cy="15.5" r="6.33" fill="#fff"/></svg>