<svg width="31" height="42" viewBox="0 0 31 42" fill="none" xmlns="http://www.w3.org/2000/svg">
<g clip-path="url(#clip0_755_2628)">
<path d="M30.5 15.4895C30.5 17.1419 29.9395 19.1621 28.9993 21.3735C28.0627 23.5766 26.7667 25.9296 25.3349 28.2358C22.4718 32.8475 19.0899 37.2338 17.0244 39.8006C16.2316 40.7793 14.7686 40.7794 13.9758 39.8007C11.9102 37.234 8.52829 32.8476 5.66512 28.2358C4.23333 25.9296 2.93732 23.5766 2.00068 21.3735C1.06049 19.1621 0.5 17.1419 0.5 15.4895C0.5 7.27192 7.21551 0.598633 15.5 0.598633C23.7845 0.598633 30.5 7.27192 30.5 15.4895ZM19.5057 11.507C18.4427 10.4515 17.0018 9.8592 15.5 9.8592C13.9982 9.8592 12.5573 10.4515 11.4943 11.507C10.4312 12.5626 9.83333 13.9951 9.83333 15.4895C9.83333 16.9839 10.4312 18.4163 11.4943 19.4719C12.5573 20.5274 13.9982 21.1198 15.5 21.1198C17.0018 21.1198 18.4427 20.5274 19.5057 19.4719C20.5688 18.4163 21.1667 16.9839 21.1667 15.4895C21.1667 13.9951 20.5688 12.5626 19.5057 11.507Z" fill="white" stroke="#606367"/>
<circle cx="15.4999" cy="15.5986" r="6.33099" fill="#606367"/>
</g>
<defs>
<clipPath id="clip0_755_2628">
<rect width="31" height="41.0423" fill="white" transform="translate(0 0.0986328)"/>
</clipPath>
</defs>
</svg>
