<svg xmlns="http://www.w3.org/2000/svg" xmlns:xlink="http://www.w3.org/1999/xlink">
    <symbol id="basic-profile-lg" viewBox="0 0 111 110">
        <path fill="url(#pattern0)" d="M0 0h110.5v110H0z" />
        <defs>
            <pattern id="pattern0" width="1" height="1" patternContentUnits="objectBoundingBox">
                <use transform="scale(.00452 .00455)" xlink:href="#image0_119_3041" />
            </pattern>
        </defs>
    </symbol>
    <symbol id="fork-profile-lg" viewBox="0 0 110 110">
        <circle cx="55" cy="55" r="54.5" fill="url(#pattern0)" stroke="#DBDBDB" />
        <path fill="#DBDBDB" d="M36 12h37v16H36z" />
        <path fill="#D9D9D9" d="M67 83h13v6H67z" />
        <path fill="#fff" d="M69.738 84.672h1.992v.204h-1.992v-.204zm.012.942h1.968v.204H69.75v-.204zm.4-.783h.248v.894h-.249v-.894zm.923 0h.246v.894h-.246v-.894zm-1.566 1.299h2.457v.204h-2.457v-.204zm1.101.09h.25v1.014h-.25V86.22zm2.382-1.443h.207v.219c0 .492-.309.903-.762 1.068l-.129-.198c.408-.138.684-.489.684-.87v-.219zm.048 0h.207v.219c0 .36.282.687.684.819l-.126.198c-.45-.153-.765-.549-.765-1.017v-.219zm-.666-.066h1.485v.201h-1.485v-.201zm1.87-.186h.251V86.1h-.252v-1.575zm-1.5 1.722h1.751v.951h-1.752v-.951zm1.505.198h-1.263v.552h1.263v-.552zm2.75-1.926h.25v2.718h-.25v-2.718zm-1.181.21c.402 0 .69.369.69.945 0 .579-.288.948-.69.948-.4 0-.687-.369-.687-.948 0-.576.288-.945.687-.945zm0 .225c-.264 0-.45.282-.45.72 0 .441.186.729.45.729.267 0 .45-.288.45-.729 0-.438-.183-.72-.45-.72z" />
        <path fill="#D9D9D9" d="M44.339 80.526a2 2 0 0 1-2.309-.81l-3.31-5.106c-1.038-1.6.54-3.607 2.34-2.975l9.087 3.187c1.8.632 1.778 3.184-.032 3.786l-5.775 1.918zm23.288-.972a2 2 0 0 1-2.306.923l-5.707-1.698c-1.817-.54-1.933-3.069-.173-3.773l8.664-3.47c1.76-.705 3.421 1.204 2.48 2.85l-2.958 5.168zm-13.726 8.283l-2.041 16.334c.925 2.001 2.069 3.385 3.15 3.385.993 0 2.742-1.952 3.092-3.385-.172-4.904-2.436-14.837-2.4-16.379.05-2.12.36-3.564.629-3.801 1.086-.96 1.852-1.153 1.771-3.064-.114-2.677-1.638-6.113-3.392-5.889-1.753.224-2.92 3.189-3.196 5.889-.184 1.8.638 1.819 1.812 3.064.939.996.637 3.263.575 3.846z" />
        <mask id="mask0_74_1188" width="14" height="47" x="48" y="8" maskUnits="userSpaceOnUse" style="mask-type:alpha">
            <path fill="#fff" d="M56.674 27.464l1.632 24.979c-3.42 3.352-5.73 1.19-6.459-.31.381-6.77 1.037-21.06 1.441-24.06.505-3.749-1.765-4.774-3.258-5.942-1.195-.934-1.357-3.006-1.289-3.925l.926-8.255c.063-.575.168-1.184 1.051-1.15.803.03.87.788.863 1.167-.066 3.636-.134 6.912-.168 7.596-.034.684.855.965 1.304 1.02 1.157-.006 3.69-.017 4.565-.017.875 0 1.136-.953 1.157-1.43.021-1.19.05-3.94 0-5.427-.063-1.858-.301-3.062.975-3.091 1.074-.025 1.252 1.546 1.238 2.33l.66 6.132c-.082 1.908.646 3.668-2.346 5.73-2.992 2.064-2.347 3.73-2.292 4.653z" />
            <path stroke="#fff" stroke-linecap="round" stroke-width="2" d="M54.94 9.625V20.49" />
        </mask>
        <g mask="url(#mask0_74_1188)">
            <path fill="#fff" d="M42.75 7.23h20.29v22.25H42.75z" />
        </g>
        <defs>
            <pattern id="pattern0" width="1" height="1" patternContentUnits="objectBoundingBox">
                <use transform="scale(.00147)" xlink:href="#image0_74_1188" />
            </pattern>
        </defs>
    </symbol>
    <symbol id="likelion" viewBox="0 0 110 110">
        <circle cx="55" cy="55" r="54.5" fill="#fff" stroke="#DBDBDB" />
        <path fill="url(#pattern0)" d="M13 36h85v44H13z" />
        <defs>
            <pattern id="pattern0" width="1" height="1" patternContentUnits="objectBoundingBox">
                <use transform="matrix(.00229 0 0 .00442 -.004 0)" xlink:href="#image0_75_1192" />
            </pattern>
        </defs>
    </symbol>
</svg>