<svg xmlns="http://www.w3.org/2000/svg" width="50" height="50" fill="none" viewBox="0 0 50 50"><circle cx="25" cy="25" r="25" fill="#286140"/><path stroke="#fff" stroke-linecap="round" stroke-linejoin="round" stroke-width="1.5" d="M33.167 14.5H16.833a2.333 2.333 0 0 0-2.333 2.333v16.334a2.333 2.333 0 0 0 2.333 2.333h16.334a2.333 2.333 0 0 0 2.333-2.333V16.833a2.333 2.333 0 0 0-2.333-2.333z"/><path stroke="#fff" stroke-linecap="round" stroke-linejoin="round" stroke-width="1.5" d="M20.917 22.666a1.75 1.75 0 1 0 0-3.5 1.75 1.75 0 0 0 0 3.5zM35.5 28.5l-5.833-5.834L16.833 35.5"/></svg>