<svg width="50" height="50" viewBox="0 0 50 50" fill="none" xmlns="http://www.w3.org/2000/svg">
<circle cx="25" cy="25" r="25" fill="#286140"/>
<path d="M33.1667 14.5H16.8333C15.5447 14.5 14.5 15.5447 14.5 16.8333V33.1667C14.5 34.4553 15.5447 35.5 16.8333 35.5H33.1667C34.4553 35.5 35.5 34.4553 35.5 33.1667V16.8333C35.5 15.5447 34.4553 14.5 33.1667 14.5Z" stroke="white" stroke-width="1.5" stroke-linecap="round" stroke-linejoin="round"/>
<path d="M20.9167 22.6665C21.8832 22.6665 22.6667 21.883 22.6667 20.9165C22.6667 19.95 21.8832 19.1665 20.9167 19.1665C19.9502 19.1665 19.1667 19.95 19.1667 20.9165C19.1667 21.883 19.9502 22.6665 20.9167 22.6665Z" stroke="white" stroke-width="1.5" stroke-linecap="round" stroke-linejoin="round"/>
<path d="M35.4999 28.4998L29.6666 22.6665L16.8333 35.4998" stroke="white" stroke-width="1.5" stroke-linecap="round" stroke-linejoin="round"/>
</svg>
